<?xml version="1.0" standalone="no"?>
<!DOCTYPE svg PUBLIC "-//W3C//DTD SVG 1.1//EN" "http://www.w3.org/Graphics/SVG/1.1/DTD/svg11.dtd">
<svg xmlns="http://www.w3.org/2000/svg">
<metadata>Generated by Fontastic.me</metadata>
<defs>
<font id="sgs" horiz-adv-x="512">
<font-face font-family="sgs" units-per-em="512" ascent="480" descent="-32"/>
<missing-glyph horiz-adv-x="512" />

<glyph glyph-name="afiliaciones" unicode="&#97;" d="M309 234l150 0c5 0 10 4 10 10 0 6-5 11-10 11l-150 0c-4 0-7-2-9-5-2-4-2-8 0-11 2-3 5-5 9-5z m0 64l150 0c4 0 7 2 9 5 2 3 2 7 0 11-2 3-5 5-9 5l-150 0c-4 0-7-2-9-5-2-4-2-8 0-11 2-3 5-5 9-5z m0-128l150 0c5 0 10 4 10 10 0 6-5 11-10 11l-150 0c-4 0-7-2-9-5-2-4-2-8 0-11 2-3 5-5 9-5z m0-64l86 0c4 0 7 2 9 5 2 3 2 7 0 11-2 3-5 5-9 5l-86 0c-5 0-10-5-10-11 0-6 5-10 10-10z m-170 341c-6 0-11-5-11-11 0-6 5-10 11-10 6 0 10 4 10 10 0 6-4 11-10 11z m320 43l-406 0c-29 0-53-24-53-54l0-362c0-30 24-54 53-54l406 0c29 0 53 24 53 54l0 362c0 30-24 54-53 54z m32-416c0-18-15-32-32-32l-406 0c-17 0-32 14-32 32l0 309 470 0z m0 330l-470 0 0 32c0 18 15 32 32 32l406 0c17 0 32-14 32-32z m-438 43c-6 0-10-5-10-11 0-6 4-10 10-10 6 0 11 4 11 10 0 6-5 11-11 11z m0-341l214 0c6 0 10 4 10 10 0 27-18 50-44 57l-32 8-1 5c8 9 14 21 17 33 5 3 9 9 10 15l3 19c0 6-1 11-5 15-1 2-3 3-4 4l0 11 2 2c6 6 13 18 2 36-6 9-18 19-41 19-13 1-25-2-37-9-44-2-49-25-49-43 0-4 1-10 2-16-2-1-4-2-5-3-4-5-5-10-5-16l3-19c1-7 5-13 12-15 2-12 7-23 15-32l-1-6-32-8c-26-7-44-30-44-57 0-3 1-5 3-7 2-2 5-3 7-3z m39 46l38 10c4 1 7 4 8 7l4 19c1 3 0 7-3 10-8 8-13 19-14 30-1 6-6 10-11 9l-3 17c3 0 6 1 8 4 2 2 3 5 3 8-1 6-2 18-2 22 0 11 0 21 31 22 2 0 4 0 6 2 8 5 18 7 27 7 11 0 19-3 23-9 4-7 2-9 1-10l-5-5c-1-1-3-4-3-7l-1-23c0-2 1-5 2-7 2-2 5-3 7-2l-1-18c-6 0-10-4-11-10-1-12-6-23-15-31-3-2-4-6-3-10l4-18c1-3 4-6 8-7l38-10c13-3 23-13 26-25l-188 0c3 12 13 22 26 25z m4 295c-6 0-11-5-11-11 0-6 5-10 11-10 6 0 11 4 11 10 0 6-5 11-11 11z"/>
<glyph glyph-name="puntos" unicode="&#98;" d="M455 199c-31 0-57 26-57 57 0 31 26 57 57 57 32 0 57-26 57-57 0-31-25-57-57-57z m-199 0c-31 0-57 26-57 57 0 31 26 57 57 57 31 0 57-26 57-57 0-31-26-57-57-57z m-199 0c-32 0-57 26-57 57 0 31 25 57 57 57 31 0 57-26 57-57 0-31-26-57-57-57z"/>
<glyph glyph-name="reloj-de-pared" unicode="&#99;" d="M437 437c-48 48-113 75-181 75-68 0-133-27-181-75-48-48-75-113-75-181 0-68 27-133 75-181 48-48 113-75 181-75 47 0 93 13 132 37 10 6 13 18 7 27-6 10-18 13-27 7-34-20-72-31-112-31-119 0-216 97-216 216 0 119 97 216 216 216 119 0 216-97 216-216 0-43-13-84-37-120-6-9-3-21 6-28 9-6 21-3 28 6 28 42 43 91 43 142 0 68-27 133-75 181z m-181-1c-11 0-20-9-20-20l0-152-73-73c-8-8-8-21 0-28 4-4 9-6 14-6 5 0 10 2 14 6l79 79c4 4 6 9 6 14l0 160c0 11-9 20-20 20z"/>
<glyph glyph-name="reportes" unicode="&#100;" d="M363 43c-59 0-107 47-107 106 0 59 48 107 107 107 59 0 106-48 106-107 0-59-47-106-106-106z m0 192c-47 0-86-39-86-86 0-47 39-85 86-85 47 0 85 38 85 85 0 47-38 86-85 86z m138-235c-2 0-5 1-7 3l-71 71c-4 4-4 11 0 15 4 4 11 4 15 0l71-71c3-3 4-7 2-11-1-4-5-7-10-7z m-277 64l-171 0c-29 0-53 24-53 53l0 342c0 29 24 53 53 53l235 0c29 0 53-24 53-53l0-150c0-5-5-10-10-10-6 0-11 5-11 10l0 150c0 17-14 32-32 32l-235 0c-17 0-32-15-32-32l0-342c0-17 15-32 32-32l171 0c6 0 10-5 10-10 0-6-4-11-10-11z m-21 152c-6 0-11 4-11 10l0 169c0 6 5 10 11 10l64 0c6 0 10-4 10-10l0-97c0-4-2-7-5-9-3-2-7-2-11 0-3 2-5 5-5 9l0 86-43 0 0-158c0-6-4-10-10-10z m-64-24l-64 0c-6 0-11 5-11 11l0 106c0 6 5 11 11 11l64 0c6 0 10-5 10-11l0-106c0-6-4-11-10-11z m-54 21l43 0 0 86-43 0z m107-21l-139 0c-4 0-7 2-9 5-2 4-2 8 0 11 2 3 5 5 9 5l139 0c6 0 11-5 11-10 0-6-5-11-11-11z"/>
<glyph glyph-name="saldo" unicode="&#101;" d="M160 128l-107 0c-29 0-53 24-53 53l0 278c0 29 24 53 53 53l320 0c30 0 54-24 54-53l0-107c0-4-2-7-6-9-3-2-7-2-10 0-4 2-6 5-6 9l0 107c0 17-14 32-32 32l-320 0c-17 0-32-15-32-32l0-278c0-17 15-32 32-32l107 0c6 0 10-5 10-10 0-6-4-11-10-11z m256 277l-405 0c-4 0-8 2-10 6-2 3-2 7 0 10 2 4 6 6 10 6l405 0c6 0 10-5 10-11 0-6-4-11-10-11z m-64-405c-88 0-160 72-160 160 0 88 72 160 160 160 88 0 160-72 160-160 0-88-72-160-160-160z m0 299c-77 0-139-62-139-139 0-77 62-139 139-139 77 0 139 62 139 139 0 77-62 139-139 139z m11-214l-54 0c-4 0-7 2-9 6-2 3-2 7 0 10 2 4 5 6 9 6l54 0c11 0 21 9 21 21 0 12-10 21-21 21l-22 0c-15 0-29 8-37 22-8 13-8 29 0 42 8 14 22 22 37 22l54 0c4 0 7-2 9-6 2-3 2-7 0-10-2-4-5-6-9-6l-54 0c-11 0-21-9-21-21 0-12 10-21 21-21l22 0c15 0 29-8 37-22 8-13 8-29 0-42-8-14-22-22-37-22z m-11-32c-6 0-11 5-11 11l0 32c0 4 2 7 6 9 3 2 7 2 10 0 4-2 6-5 6-9l0-32c0-6-5-11-11-11z m0 160c-6 0-11 5-11 11l0 32c0 4 2 7 6 9 3 2 7 2 10 0 4-2 6-5 6-9l0-32c0-6-5-11-11-11z"/>
<glyph glyph-name="servicios" unicode="&#102;" d="M459 0l-406 0c-29 0-53 24-53 53l0 406c0 29 24 53 53 53l406 0c29 0 53-24 53-53l0-406c0-29-24-53-53-53z m-406 491c-17 0-32-15-32-32l0-406c0-17 15-32 32-32l406 0c17 0 32 15 32 32l0 406c0 17-15 32-32 32z m128-214l-85 0c-18 0-32 15-32 32l0 86c0 17 14 32 32 32l85 0c18 0 32-15 32-32l0-86c0-17-14-32-32-32z m-85 128c-6 0-11-4-11-10l0-86c0-6 5-10 11-10l85 0c6 0 11 4 11 10l0 86c0 6-5 10-11 10z m341-21l-149 0c-6 0-11 5-11 11 0 6 5 10 11 10l149 0c6 0 11-4 11-10 0-6-5-11-11-11z m0-85l-149 0c-6 0-11 4-11 10 0 6 5 11 11 11l149 0c6 0 11-5 11-11 0-6-5-10-11-10z m-298 21c-3 0-6 1-8 3l-43 43c-4 4-4 11 0 15 5 4 11 4 16 0l35-35 99 99c4 4 11 4 15 0 4-4 4-11 0-15l-107-107c-2-2-5-3-7-3z m42-256l-85 0c-18 0-32 14-32 32l0 85c0 18 14 32 32 32l85 0c18 0 32-14 32-32l0-85c0-18-14-32-32-32z m-85 128c-6 0-11-5-11-11l0-85c0-6 5-11 11-11l85 0c6 0 11 5 11 11l0 85c0 6-5 11-11 11z m341-21l-149 0c-6 0-11 4-11 10 0 6 5 11 11 11l149 0c6 0 11-5 11-11 0-6-5-10-11-10z m0-86l-149 0c-6 0-11 5-11 11 0 6 5 11 11 11l149 0c6 0 11-5 11-11 0-6-5-11-11-11z"/>
<glyph glyph-name="soporte" unicode="&#103;" d="M213 237c7 5 14 8 21 10l54 14c4 1 7 4 8 7l6 26c1 4 0 8-3 10-13 12-20 28-22 46-1 6-7 10-13 10-1 0-2 0-2 2l-3 27 3 1c3 0 6 2 8 4 2 2 3 5 3 8-1 7-3 25-3 31 0 16 0 35 48 35 2 0 4 1 6 2 12 8 26 12 41 11 17 0 28-5 35-15 7-11 4-15 1-19l-6-6c-2-2-3-5-4-7l-1-33c0-3 2-6 4-9 2-2 5-4 9-4l-4-26c0-2-1-2-3-2-5 0-10-5-10-10-2-18-10-35-23-47-3-2-4-6-3-10l6-25c1-3 4-6 8-7l53-14c25-6 42-28 42-54 0-6 5-11 11-11 6 0 11 5 11 11 0 36-24 66-59 75l-47 12-3 12c12 13 21 30 24 48 8 3 14 11 15 19l3 26c1 7-1 13-6 18-2 3-4 4-6 6l1 20 3 4c7 7 16 22 2 45-8 11-23 24-53 24-18 1-36-3-51-13-58-1-65-30-65-56 0-5 1-16 2-24-3-1-6-3-8-5-4-5-6-12-6-19l4-26c1-9 7-16 16-19 3-17 11-34 23-47l-4-13-47-12c-10-3-20-7-29-14-4-4-5-10-2-15 4-5 11-5 15-2z m298-124c-15 29-48 44-80 36l-69-17c-3 27-19 42-50 50l-185 41c0 4 1 8 1 12 0 3-1 6-3 9-19 17-92 22-114 24-3 0-6-1-8-3-2-2-3-5-3-8l0-192c0-6 5-11 11-11l64 0c4 0 8 3 10 8 0 1 2 5 4 12l153-51c13-6 28-10 44-11 21 0 47 10 102 33l118 53c2 1 4 3 5 6 1 3 1 6 0 9z m-444-37l-46 0 0 170c35-3 72-9 85-15-6-47-31-130-39-155z m313-12c-90-36-93-35-131-21l-154 51c9 29 21 73 28 108l184-41c23-6 33-15 34-34l-20-5c-8-2-16-3-24-1l-92 19c-3 0-6 0-8-2-3-2-4-4-5-7 0-3 0-5 2-8 1-2 4-4 7-4l92-19c5-1 10-1 15-1 6 0 12 0 18 2l28 7 1 0 81 20c18 5 38-1 50-16z"/>
<glyph glyph-name="transacciones" unicode="&#104;" d="M448 0l-384 0c-24 0-43 19-43 43l0 213c0 24 19 43 43 43l384 0c24 0 43-19 43-43l0-213c0-24-19-43-43-43z m-384 277c-12 0-21-9-21-21l0-213c0-12 9-22 21-22l384 0c12 0 21 10 21 22l0 213c0 12-9 21-21 21z m256 150c-3 0-6 1-8 3l-56 56-56-56c-5-4-11-4-15 0-5 4-5 11-1 15l64 64c5 4 11 4 16 0l64-64c3-3 4-8 2-12-2-4-6-6-10-6z m-64-107c-6 0-11 5-11 11l0 170c0 6 5 11 11 11 6 0 11-5 11-11l0-170c0-6-5-11-11-11z m-117 64c-3 0-6 1-8 3l-56 57-57-57c-2-3-6-4-10-3-4 1-7 4-8 8-1 4 0 8 3 10l64 64c4 4 11 4 15 0l64-64c3-3 4-7 3-11-2-4-6-7-10-7z m-64-64c-6 0-11 5-11 11l0 128c0 6 5 10 11 10 6 0 10-4 10-10l0-128c0-6-4-11-10-11z m426 64c-3 0-5 1-7 3l-57 57-56-57c-4-4-11-4-15 0-4 4-4 11 0 15l64 64c4 4 11 4 15 0l64-64c3-3 4-7 2-11-1-4-5-7-10-7z m-64-64c-6 0-10 5-10 11l0 128c0 6 4 10 10 10 6 0 11-4 11-10l0-128c0-6-5-11-11-11z m-181-256c-47 0-85 38-85 85 0 47 38 86 85 86 47 0 85-39 85-86 0-47-38-85-85-85z m0 149c-35 0-64-28-64-64 0-35 29-64 64-64 35 0 64 29 64 64 0 36-29 64-64 64z m-139-74l-21 0c-6 0-11 4-11 10 0 6 5 11 11 11l21 0c6 0 11-5 11-11 0-6-5-10-11-10z m299 0l-21 0c-6 0-11 4-11 10 0 6 5 11 11 11l21 0c6 0 11-5 11-11 0-6-5-10-11-10z"/>
<glyph glyph-name="usuarios" unicode="&#105;" d="M254 405c30 0 54 24 54 54 0 29-24 53-54 53-29 0-53-24-53-53 0-30 24-54 53-54z m0 86c18 0 32-15 32-32 0-18-14-32-32-32-18 0-32 14-32 32 0 17 14 32 32 32z m151-107c30 0 54 24 54 53 0 30-24 54-53 54-30 0-54-24-54-54 0-29 24-53 53-53z m0 85c18 0 33-14 33-32 0-17-15-32-33-32-17 0-32 15-32 32 0 18 15 32 32 32z m94-263l-14 110c-4 26-26 46-53 47l-53 0c-6 0-12-2-18-4-5-2-8-8-6-13 2-6 8-9 13-7 4 1 7 2 11 2l53 0c16 0 30-12 32-28l13-109c1-3 0-6-2-9-2-2-5-3-8-3l-8 0c-6 0-10-5-11-10l-10-140-65 0-3 33c0 6-5 10-11 10-6-1-10-6-10-12l3-42c1-6 5-10 11-10l85 0c6 0 10 4 11 10l10 139c9 1 17 5 22 12 6 7 9 16 7 24z m-147-87l-16 78c12 8 18 21 16 34l-14 101c-3 29-26 51-55 52l-54 0c-29-1-52-23-55-52l-14-101c-1-13 5-26 16-34l-16-78c-1-3 0-6 2-9 2-2 5-4 9-4l36 0 17-98c1-5 5-9 11-9l42 0c6 0 10 4 11 9l17 98 37 0c3 0 6 2 8 4 2 3 3 6 2 9z m-38 82l14-73-32 0c-5 0-9-4-10-9l-18-98-24 0-18 98c-1 5-5 9-10 9l-32 0 14 73c1 6-2 11-8 13-6 2-10 8-9 14l14 102c2 17 16 31 34 32l54 0c18-1 32-15 34-33l14-101c1-6-3-12-9-14-6-2-9-7-8-13z m-161-116c-3 0-6-1-8-3-2-2-3-4-3-7l-3-33-65 0-10 140c-1 5-5 10-11 10l-8 0c-3 0-6 1-8 3-2 3-3 6-2 9l13 109c2 16 16 28 32 28l53 0c3 0 5 0 8-1 6-1 11 2 13 8 1 5-2 11-8 13-4 1-9 1-13 2l-53 0c-27-1-49-21-53-47l-14-110c-1-8 2-17 8-24 5-7 13-11 22-12l10-139c1-6 5-10 11-10l85 0c6 0 10 4 11 10l3 42c0 6-4 11-10 12z m-47 299c30 0 54 24 54 53 0 30-24 54-54 54-29 0-53-24-53-54 0-29 24-53 53-53z m0 85c18 0 33-14 33-32 0-17-15-32-33-32-17 0-32 15-32 32 0 18 15 32 32 32z"/>
<glyph glyph-name="abonar" unicode="&#106;" d="M384 67l-256 0c-33 0-61 28-61 61l0 256c0 16 7 30 19 42 12 12 26 19 42 19l42 0c9 0 19-7 19-19 0-12-7-19-19-19l-42 0c-14 0-26-11-26-25l0-133 38 0c9 0 21-5 28-12l51-51c0 0 2 0 2 0l68 0c0 0 2 0 2 0l51 51c7 7 16 12 28 12l37 0 0 133c0 14-11 25-25 25l-42 0c-10 0-19 7-19 19 0 12 7 19 19 19l42 0c32 0 60-28 60-61l0-256c3-33-25-61-58-61z m-282 149l0-88c0-14 12-26 26-26l256 0c14 0 26 12 26 26l0 88-38 0c0 0-2 0-2 0l-51-51c-7-7-16-11-28-11l-68 0c-9 0-21 4-28 11l-51 51c0 0-2 0-2 0z m154 45c-2 0-5 0-7 2-2 0-5 2-5 5l-62 65c-7 7-7 18 0 25 7 7 18 7 25 0l35-35 0 128c0 10 7 19 19 19 11 0 18-7 18-19l0-128 35 35c7 7 19 7 26 0 7-7 7-18 0-25l-63-65c-2-3-5-3-5-5-11-2-14-2-16-2z"/>
<glyph glyph-name="add-usuario" unicode="&#107;" d="M320 46l-256 0c-10 0-20 8-20 21l0 20c0 82 66 149 148 149 82 0 148-67 148-149l0-20c0-13-10-21-20-21z m-236 38l218 0 0 3c0 59-49 110-110 110-61 0-108-51-108-113z m300 90c-10 0-20 8-20 21l0 46-47 0c-10 0-20 7-20 20 0 13 8 21 20 21l47 0 0 46c0 10 7 20 20 20 13 0 20-8 20-20l0-46 47 0c10 0 20-8 20-21 0-13-8-20-20-20l-47 0 0-46c0-13-10-21-20-21z m-192 85c-59 0-105 46-105 105 0 58 46 104 105 104 59 0 105-46 105-104 0-59-46-105-105-105z m0 171c-36 0-67-31-67-66 0-36 31-67 67-67 36 0 67 31 67 67 0 35-31 66-67 66z"/>
<glyph glyph-name="retirar" unicode="&#108;" d="M383 66l-254 0c-33 0-61 28-61 60l0 193c0 16 7 30 19 41 11 12 25 19 42 19l41 0c3 0 5 0 7-2l65 81c7 7 16 9 26 2 9-7 9-16 2-25l-148-183 18 0c9 0 21-5 28-12l51-51c0 0 2 0 2 0l67 0c0 0 3 0 3 0l51 51c7 7 16 12 28 12l37 0 0 67c0 14-12 25-26 25l-42 0c-9 0-18 7-18 19 0 11 7 18 18 18l42 0c33 0 60-28 60-60l0-192c3-35-25-63-58-63z m-280 148l0-88c0-14 12-25 26-25l254 0c14 0 26 11 26 25l0 88-37 0c0 0-2 0-2 0l-51-51c-7-6-17-11-28-11l-67 0c-10 0-21 5-28 11l-51 51c0 0-3 0-3 0z m26 128c-14 0-26-12-26-26l0-34 49 60z m127-42c-9 0-19 7-19 19l0 127-34-35c-7-7-19-7-26 0-7 7-7 19 0 26l63 65c2 2 4 2 4 4 3 0 5 3 7 3 3 0 5 0 7-3 3 0 5-2 5-4l63-65c6-7 6-19 0-26-7-7-19-7-26 0l-35 35 0-127c10-12 0-19-9-19z"/>
<glyph glyph-name="caja" unicode="&#109;" d="M467 137l-406 0 18 213c1 8 8 15 17 15l13 0 0-35-10 0c-5 0-9-4-9-9 0-4 4-9 9-9l155 0c5 0 9 5 9 9 0 5-4 9-9 9l-10 0 0 137c0 5-4 9-9 8-1 0-3-1-4-1l-26-14-25 14c-3 1-6 1-8 0l-26-14-26 14c-4 2-9 0-11-4-1-1-2-2-2-4l0-85-13 0c-18 0-32-14-34-31l-18-214c-23-1-40-20-40-42l0-51c0-23 18-41 42-42l422 0c23 0 41 19 42 42l0 51c1 24-18 43-41 43z m-341 316l17-10c3-1 6-1 8 0l26 15 26-15c2-1 6-1 8 0l17 10 0-123-102 0z m366-408c0-14-12-25-26-26l-421 0c-14 0-25 12-26 26l0 50c0 14 12 25 26 26l421 0c14 0 25-12 26-26z m-227 328c0 5 4 9 8 9l56 0 0 11c0 4 4 9 9 9 5 0 9-5 9-9l0-11 44 0 0 11c0 4 4 9 9 9 5 0 9-5 9-9l0-11 9 0c18 0 33-14 34-31l15-174c1-5-3-9-7-10-4 0-9 4-10 8l-15 174c0 9-8 15-17 15l-145 0c-5 1-8 5-8 9z m50 39l105 0c19 0 34 15 34 34l0 30c0 19-15 33-34 33l-105 0c-19 0-34-14-34-33l0-30c0-18 15-34 34-34z m-17 64c0 9 8 17 17 17l105 0c10 0 17-8 17-17l0-30c0-9-7-17-17-17l-105 0c-9 0-17 8-17 17z m-164-204c-14 0-25-11-25-26l0-37c0-15 11-25 25-26l85 0c14 0 25 11 25 26l0 37c0 15-11 25-25 26z m94-25l0-38c0-4-5-8-9-8l-85 0c-4 0-8 4-8 8l0 38c0 5 4 9 8 9l85 0c4-1 9-4 9-9z m78 22c0-4-4-8-8-8l-10 0c-5 0-9 4-9 8 0 5 4 9 9 9l10 0c4-1 8-4 8-9z m53 0c0-4-4-8-9-8l-9 0c-5 0-9 4-9 8 0 5 4 9 9 9l9 0c6-1 9-4 9-9z m53 0c0-4-4-8-9-8l-9 0c-5 0-9 4-9 8 0 5 4 9 9 9l10 0c4-1 8-4 8-9z m-106-63c0-5-4-9-8-9l-10 0c-5 0-9 4-9 9 0 5 4 9 9 9l10 0c4 0 8-4 8-9z m53 0c0-5-4-9-9-9l-9 0c-5 0-9 4-9 9 0 5 4 9 9 9l9 0c6 0 9-4 9-9z m53 0c0-5-4-9-9-9l-9 0c-5 0-9 4-9 9 0 5 4 9 9 9l10 0c4 0 8-4 8-9z m-367-206c-24 0-44 20-44 45l0 50c0 24 17 43 41 45l18 212c2 19 18 33 36 33l11 0 0 83c0 2 1 4 2 5 1 3 4 4 7 5 2 1 6 1 8-1l24-13 24 13c4 2 8 2 11 0l24-13 25 13c1 1 3 1 5 1 3 0 5-1 7-3 2-2 4-5 4-7l0-135 8 0c6 0 11-4 11-10 0-6-5-11-11-11l-156 0c-6 0-11 5-11 11 0 6 5 10 11 10l8 0 0 30-11 0c-8 0-14-5-15-13l-18-210 404 0c24 0 44-20 44-44l0-51c0-24-20-44-44-44l-423 0z m50 379c-16 0-29-13-31-28l-19-216-2 0c-21-1-38-18-38-40l0-50c0-22 17-40 40-40l421 0c22 0 40 17 40 40l0 50c0 22-17 40-40 40l-408 0 18 215c0 10 9 18 19 18l16 0 0-40-12 0c-4 0-6-3-6-6 0-3 2-6 6-6l155 0c4 0 7 3 7 6 0 3-3 6-7 6l-12 0 0 140c0 1-1 3-2 4-2 0-3 2-4 2-1 0-2 0-3-1l-26-15-27 15c-2 1-4 1-6 0l-26-15-26 15c-2 1-3 1-5 1-1-1-3-2-4-3 0-1 0-2 0-3l0-87-18 0c0-2 0-2 0-2z m-50-362c-15 0-27 13-27 28l0 50c0 16 13 28 27 28l422 0c15 0 28-13 28-28l0-50c0-16-13-28-28-28z m422 101l-422 0c-12 0-23-10-23-23l0-50c0-13 11-23 23-23l422 0c13 0 23 10 23 23l0 50c-1 13-11 23-23 23z m-11 47c-5 0-10 4-11 11l-14 174c-1 7-7 12-15 12l-143 0c-6 0-11 5-11 11 0 6 5 11 11 11l53 0 0 8c0 6 5 11 11 11 6 0 11-5 11-11l0-8 39 0 0 8c0 6 4 11 10 11 7 0 11-5 11-11l0-8 7 0c19 0 34-14 36-33l15-174c0-3 0-6-2-8-2-2-5-4-8-4 1 0 1 0 0 0z m-40 203c10 0 19-8 19-18l15-174c0-3 3-5 6-5 2 0 3 1 4 2 2 1 2 3 2 4l-15 174c-2 16-15 28-31 28l-12 0 0 13c0 3-3 6-7 6-3 0-6-3-6-6l0-13-49 0 0 13c0 3-3 6-6 6-3 0-6-3-6-6l0-13-57 0c-4 0-6-2-6-6 0-3 2-6 6-6l143 0c0 1 0 1 0 1z m-282-187c-15 0-27 13-27 28l0 37c0 16 13 28 27 28l85 0c15 0 27-13 27-28l0-37c0-16-12-28-27-28z m0 89c-12 0-23-10-23-23l0-38c0-13 11-23 23-23l85 0c13 0 23 10 23 23l0 38c0 13-10 23-23 23z m270-75l-10 0c-6 0-11 5-11 11 0 6 5 11 11 11l10 0c6 0 10-5 10-11 0-6-4-11-10-11z m-10 17c-3 0-6-3-6-6 0-3 3-6 6-6l10 0c3 0 6 3 6 6 0 1-1 3-2 4-2 1-3 2-4 2z m-43-17l-9 0c-7 0-11 5-11 11 0 6 4 11 11 11l9 0c6 0 11-5 11-11 0-6-5-11-11-11z m-9 17c-4 0-7-3-7-6 0-3 3-6 7-6l9 0c3 0 6 3 6 6 0 3-3 6-6 6z m-44-17l-9 0c-6 0-11 5-11 11 0 6 5 11 11 11l9 0c6 0 11-5 11-11 0-6-5-11-11-11z m-10 17c-3 0-6-3-6-6 0-3 3-6 6-6l10 0c3 0 6 3 6 6 0 3-3 6-6 6z m-154-14c-6 0-10 5-10 11l0 37c0 6 4 11 10 11l85 0c6 0 11-5 11-11l0-37c0-6-5-11-11-11z m0 55c-3 0-6-3-6-6l0-38c0-3 3-6 6-6l85 0c3 0 6 3 6 6l0 38c0 3-3 6-6 6z m270 6l-10 0c-6 0-11 4-11 10 0 6 5 11 11 11l10 0c6 0 10-5 10-11 0-6-4-10-10-10z m-10 16c-3 0-6-2-6-6 0-3 3-6 6-6l10 0c3 0 6 3 6 6 0 2-1 4-2 4-2 2-3 2-4 2z m-43-16l-9 0c-7 0-11 4-11 10 0 6 4 11 11 11l9 0c6 0 11-5 11-11 0-6-5-10-11-10z m-9 16c-4 0-7-2-7-6 0-3 3-6 7-6l9 0c3 0 6 3 6 6 0 4-3 6-6 6z m-44-16l-9 0c-6 0-11 4-11 10 0 6 5 11 11 11l9 0c6 0 11-5 11-11 0-6-5-10-11-10z m-10 16c-3 0-6-2-6-6 0-3 3-6 6-6l10 0c3 0 6 3 6 6 0 4-3 6-6 6z m-58 53l-106 0 0 130 21-13c2-1 4-1 6 0l26 15 26-15c2-2 4-2 6 0l21 12z m-101 5l96 0 0 115-12-7c-4-2-8-2-11 0l-24 13-25-13c-3-2-7-2-10 0l-13 7z m186 77c-20 0-36 16-36 37l0 29c0 21 16 37 36 37l105 0c21 0 37-16 37-37l0-29c0-21-16-37-37-37z m0 5l105 0c17 0 31 14 31 31l0 30c0 17-14 31-31 31l-105 0c-17 0-31-14-31-31l0-30c-1-17 14-31 31-31z m105 12l-105 0c-11 0-19 9-19 20l0 29c0 11 8 20 19 20l105 0c11 0 20-9 20-20l0-29c0-12-9-20-20-20z m-105 63c-8 0-14-7-14-14l0-30c0-8 7-14 14-14l105 0c9 0 15 7 15 14l0 30c0 8-7 14-15 14z"/>
<glyph glyph-name="calendario" unicode="&#110;" d="M404 46l-299 0c-33 0-61 28-61 62l0 256c0 15 7 33 17 43 13 13 29 18 44 18l43 0 0 23c0 10 8 20 21 20 13 0 20-7 20-20l0-23 134 0 0 23c0 10 7 20 20 20 13 0 21-7 21-20l0-23 43 0c15 0 33-8 44-18 12-13 17-28 17-43l0-256c0-36-28-62-64-62z m-296 341c-13 0-24-11-24-23l0-256c0-13 11-24 24-24l0-20 0 20 299 0c13 0 23 11 23 24l0 256c0 5-2 12-8 15-5 2-10 8-15 8l-46 0 0-23c0-11-8-21-21-21-12 0-20 8-20 21l0 23-133 0 0-23c0-11-8-21-21-21-12 0-20 8-20 21l0 23z m256-128l-213 0c-10 0-20 7-20 20 0 13 7 21 20 21l213 0c10 0 20-8 20-21 0-13-10-20-20-20z"/>
<glyph glyph-name="config" unicode="&#111;" d="M384 67c-9 0-19 7-19 19l0 28c-25 7-42 30-42 58 0 28 19 51 42 58l0 198c0 10 7 19 19 19 12 0 19-7 19-19l0-198c25-7 42-30 42-58 0-28-19-51-42-58l0-28c0-9-10-19-19-19z m0 80c14 0 26 11 26 25 0 14-12 26-26 26-14 0-26-12-26-26 0-14 12-25 26-25z m-128-80c-9 0-19 7-19 19l0 198c-25 7-42 30-42 58 0 28 19 51 42 58l0 28c0 10 7 19 19 19 12 0 19-7 19-19l0-28c25-7 42-30 42-58 0-28-19-51-42-58l0-198c0-9-10-19-19-19z m0 301c-14 0-26-12-26-26 0-14 12-25 26-25 14 0 26 11 26 25 0 14-12 26-26 26z m-128-301c-9 0-19 7-19 19l0 28c-25 7-42 30-42 58 0 28 19 51 42 58l0 198c0 10 7 19 19 19 12 0 19-7 19-19l0-198c25-7 42-30 42-58 0-28-19-51-42-58l0-28c0-9-10-19-19-19z m0 80c14 0 26 11 26 25 0 14-12 26-26 26-14 0-26-12-26-26 0-14 12-25 26-25z"/>
<glyph glyph-name="historico" unicode="&#112;" d="M151 77c-32 0-58 25-58 58l0 188c-23 7-42 31-42 56 0 33 26 59 58 59l289 0c33 0 58-26 58-59 0-25-16-49-39-56l0-188c0-16-7-30-19-42-12-12-26-16-42-16z m-23 244l0-186c0-7 2-12 7-16 5-5 9-7 16-7l207 0c7 0 12 2 17 7 4 4 7 9 7 16l0 186z m-16 35l288 0c14 0 24 9 24 23 0 14-10 24-24 24l-288 0c-14 0-24-10-24-24 0-14 10-23 24-23z m186-116l-84 0c-9 0-19 7-19 18 0 12 7 19 19 19l84 0c9 0 19-7 19-19 0-11-10-18-19-18z"/>
<glyph glyph-name="lupa" unicode="&#113;" d="M449 43c-5 0-11 3-14 5l-114 114c-28-23-65-37-105-37-94 0-170 77-170 171 0 94 76 170 170 170 94 0 171-76 171-170 0-40-14-77-37-105l114-114c8-9 8-23 0-31-6 0-12-3-15-3z m-236 384c-71 0-128-57-128-128 0-71 57-128 128-128 71 0 128 57 128 128 0 71-57 128-128 128z"/>
<glyph glyph-name="menu" unicode="&#114;" d="M171 284l-114 0c-31 0-57 26-57 57l0 114c0 31 26 57 57 57l114 0c31 0 57-26 57-57l0-114c0-31-26-57-57-57z m-114 185c-9 0-14-5-14-14l0-114c0-8 5-14 14-14l114 0c8 0 14 6 14 14l0 114c0 9-6 14-14 14z m114-469l-114 0c-31 0-57 26-57 57l0 114c0 31 26 57 57 57l114 0c31 0 57-26 57-57l0-114c0-31-26-57-57-57z m-114 185c-9 0-14-6-14-14l0-114c0-9 5-14 14-14l114 0c8 0 14 5 14 14l0 114c0 8-6 14-14 14z m398 99l-114 0c-31 0-57 26-57 57l0 114c0 31 26 57 57 57l114 0c31 0 57-26 57-57l0-114c0-31-26-57-57-57z m-114 185c-8 0-14-5-14-14l0-114c0-8 6-14 14-14l114 0c9 0 14 6 14 14l0 114c0 9-5 14-14 14z m114-469l-114 0c-31 0-57 26-57 57l0 114c0 31 26 57 57 57l114 0c31 0 57-26 57-57l0-114c0-31-26-57-57-57z m-114 185c-8 0-14-6-14-14l0-114c0-9 6-14 14-14l114 0c9 0 14 5 14 14l0 114c0 8-5 14-14 14z"/>
<glyph glyph-name="menu-caja" unicode="&#115;" d="M384 70l-256 0c-32 0-60 26-60 60l0 256c0 32 26 60 60 60l256 0c32 0 60-26 60-60l0-256c0-34-28-60-60-60z m-282 150l0-92c0-15 13-28 28-28l256 0c15 0 28 13 28 28l0 92-39 0c-2 0-2 0-4-2l-51-52c-6-6-17-10-26-10l-68 0c-11 0-19 4-25 10l-52 52c0 0-2 2-4 2z m0 32l39 0c10 0 19-5 25-11l52-51c0 0 2-2 4-2l68 0c2 0 2 0 4 2l52 51c6 6 17 11 25 11l39 0 0 134c0 15-13 28-28 28l-256 0c-15 0-28-13-28-28l0-134z"/>
<glyph glyph-name="notificacion" unicode="&#116;" d="M256 46c-46 0-84 38-84 85l0 2-88 0c-7 0-15 5-17 13-3 8-3 15 5 20l30 31c6 5 8 10 8 18l0 67c0 58 33 110 85 133 0 15 7 30 17 41 13 10 29 18 44 18 33 0 59-26 61-57 52-23 85-77 85-133l0-66c0-6 2-13 8-18l30-31c5-5 8-13 5-21-2-7-10-12-17-12l-88 0 0-3c0-51-38-87-84-87z m-44 85c0-26 21-47 47-47 25 0 46 21 46 47l0 2-93 0z m108 38l61 0c-10 10-15 26-15 41l0 66c0 47-28 88-72 103-7 2-12 10-12 18l0 7c0 13-11 24-23 26-8 0-13-2-18-8-5-5-8-10-8-15l0-8c0-7-5-15-13-18-43-15-72-56-72-102l0-67c0-15-5-30-15-40l187 0z"/>
</font>
</defs>
</svg>
